<svg xmlns="http://www.w3.org/2000/svg" width="720" height="560" viewBox="0 0 720 560">
  <defs>
    <linearGradient id="sky" x1="0%" y1="0%" x2="100%" y2="100%">
      <stop offset="0%" stop-color="#e8f0ff" />
      <stop offset="100%" stop-color="#d4f4fb" />
    </linearGradient>
    <linearGradient id="card" x1="0%" y1="0%" x2="0%" y2="100%">
      <stop offset="0%" stop-color="#ffffff" />
      <stop offset="100%" stop-color="#f2f6ff" />
    </linearGradient>
    <filter id="s" x="-20%" y="-20%" width="140%" height="140%">
      <feDropShadow dx="0" dy="12" stdDeviation="16" flood-color="#0f62fe" flood-opacity="0.12" />
    </filter>
  </defs>
  <rect width="720" height="560" rx="28" fill="url(#sky)" />
  <rect x="48" y="64" width="624" height="432" rx="22" fill="url(#card)" filter="url(#s)" stroke="rgba(15,98,254,0.12)" />
  <rect x="88" y="108" width="200" height="14" rx="7" fill="rgba(15,98,254,0.2)" />
  <rect x="88" y="138" width="320" height="10" rx="5" fill="rgba(11,19,32,0.1)" />
  <rect x="88" y="158" width="280" height="10" rx="5" fill="rgba(11,19,32,0.08)" />
  <g transform="translate(420 120)">
    <rect x="0" y="0" width="200" height="140" rx="16" fill="rgba(15,98,254,0.12)" />
    <path d="M100,28 L100,92 M72,60 L128,60" stroke="#0f62fe" stroke-width="10" stroke-linecap="round" opacity="0.35" />
    <circle cx="100" cy="118" r="6" fill="#00a7c4" opacity="0.5" />
  </g>
  <ellipse cx="200" cy="420" rx="120" ry="28" fill="rgba(15,98,254,0.08)" />
  <ellipse cx="520" cy="440" rx="160" ry="36" fill="rgba(0,167,196,0.1)" />
  <path d="M88 380 Q200 340 360 360 T620 340 L620 480 L88 480 Z" fill="rgba(15,98,254,0.06)" />
</svg>
